# xmcd
#
# Track frame offsets:
#	150
#	15627
#	34607
#	48222
#	69570
#
# Disc length: 1168 seconds
# Revision: 3
# Processed by: cddbd v1.5.2PL0 Copyright (c) Steve Scherf et al.
# Submitted via: dBpowerAMP V12.0
#
DISCID=35048e05
DTITLE=Shania Twain - You've Got A Way
DYEAR=1999
DGENRE=Country
TTITLE0=You've Got A Way (Notting Hill Mix)
TTITLE1=Man! I Feel Like A Woman! (Live/Direct Tv)
TTITLE2=Come On Over (Live/Direct Tv)
TTITLE3=From This Moment On
TTITLE4=You've Got A Way (Love To Infinity Radio Mix)
EXTD=
EXTT0=
EXTT1=
EXTT2=
EXTT3=
EXTT4=
PLAYORDER=
